<?xml version="1.0" encoding="iso-8859-1"?>
<!DOCTYPE svg PUBLIC "-//W3C//DTD SVG 1.1//EN"
 "http://www.w3.org/Graphics/SVG/1.1/DTD/svg11.dtd">
<svg xmlns="http://www.w3.org/2000/svg" version="1.1" width="400pt" height="400pt" viewBox="0 0 400 400">
	<g fill="none" stroke="blue">
		<line x1="1" y1="1" x2="1" y2="399" />
		<line x1="1" y1="399" x2="399" y2="399" />
		<line x1="399" y1="399" x2="399" y2="1" />
		<line x1="399" y1="1" x2="1" y2="1" />
		<line x1="200" y1="1" x2="200" y2="399" />
		<line x1="1" y1="200" x2="399" y2="200" />
		<line x1="100" y1="1" x2="100" y2="200" />
		<line x1="1" y1="100" x2="200" y2="100" />
		<line x1="50" y1="1" x2="50" y2="100" />
		<line x1="1" y1="50" x2="100" y2="50" />
		<line x1="25" y1="1" x2="25" y2="50" />
		<line x1="1" y1="25" x2="50" y2="25" />
		<line x1="13" y1="1" x2="13" y2="25" />
		<line x1="1" y1="13" x2="25" y2="13" />
		<line x1="7" y1="1" x2="7" y2="13" />
		<line x1="1" y1="7" x2="13" y2="7" />
		<line x1="10" y1="1" x2="10" y2="7" />
		<line x1="7" y1="4" x2="13" y2="4" />
		<line x1="8" y1="4" x2="8" y2="7" />
		<line x1="7" y1="5" x2="10" y2="5" />
		<line x1="10" y1="7" x2="10" y2="13" />
		<line x1="7" y1="10" x2="13" y2="10" />
		<line x1="11" y1="7" x2="11" y2="10" />
		<line x1="10" y1="8" x2="13" y2="8" />
		<line x1="11" y1="7" x2="11" y2="8" />
		<line x1="10" y1="7" x2="11" y2="7" />
		<line x1="11" y1="7" x2="11" y2="7" />
		<line x1="11" y1="7" x2="11" y2="7" />
		<line x1="19" y1="1" x2="19" y2="13" />
		<line x1="13" y1="7" x2="25" y2="7" />
		<line x1="13" y1="25" x2="13" y2="50" />
		<line x1="1" y1="38" x2="25" y2="38" />
		<line x1="7" y1="25" x2="7" y2="38" />
		<line x1="1" y1="32" x2="13" y2="32" />
		<line x1="4" y1="25" x2="4" y2="32" />
		<line x1="1" y1="28" x2="7" y2="28" />
		<line x1="7" y1="38" x2="7" y2="50" />
		<line x1="1" y1="44" x2="13" y2="44" />
		<line x1="4" y1="38" x2="4" y2="44" />
		<line x1="1" y1="41" x2="7" y2="41" />
		<line x1="5" y1="41" x2="5" y2="44" />
		<line x1="4" y1="42" x2="7" y2="42" />
		<line x1="4" y1="41" x2="4" y2="42" />
		<line x1="4" y1="42" x2="5" y2="42" />
		<line x1="5" y1="42" x2="5" y2="42" />
		<line x1="4" y1="42" x2="5" y2="42" />
		<line x1="10" y1="38" x2="10" y2="44" />
		<line x1="7" y1="41" x2="13" y2="41" />
		<line x1="8" y1="38" x2="8" y2="41" />
		<line x1="7" y1="39" x2="10" y2="39" />
		<line x1="7" y1="38" x2="7" y2="39" />
		<line x1="7" y1="39" x2="8" y2="39" />
		<line x1="19" y1="25" x2="19" y2="38" />
		<line x1="13" y1="32" x2="25" y2="32" />
		<line x1="22" y1="25" x2="22" y2="32" />
		<line x1="19" y1="28" x2="25" y2="28" />
		<line x1="38" y1="1" x2="38" y2="25" />
		<line x1="25" y1="13" x2="50" y2="13" />
		<line x1="32" y1="1" x2="32" y2="13" />
		<line x1="25" y1="7" x2="38" y2="7" />
		<line x1="28" y1="1" x2="28" y2="7" />
		<line x1="25" y1="4" x2="32" y2="4" />
		<line x1="27" y1="4" x2="27" y2="7" />
		<line x1="25" y1="5" x2="28" y2="5" />
		<line x1="38" y1="25" x2="38" y2="50" />
		<line x1="25" y1="38" x2="50" y2="38" />
		<line x1="32" y1="38" x2="32" y2="50" />
		<line x1="25" y1="44" x2="38" y2="44" />
		<line x1="28" y1="38" x2="28" y2="44" />
		<line x1="25" y1="41" x2="32" y2="41" />
		<line x1="44" y1="38" x2="44" y2="50" />
		<line x1="38" y1="44" x2="50" y2="44" />
		<line x1="41" y1="38" x2="41" y2="44" />
		<line x1="38" y1="41" x2="44" y2="41" />
		<line x1="25" y1="50" x2="25" y2="100" />
		<line x1="1" y1="75" x2="50" y2="75" />
		<line x1="13" y1="75" x2="13" y2="100" />
		<line x1="1" y1="88" x2="25" y2="88" />
		<line x1="7" y1="88" x2="7" y2="100" />
		<line x1="1" y1="94" x2="13" y2="94" />
		<line x1="4" y1="88" x2="4" y2="94" />
		<line x1="1" y1="91" x2="7" y2="91" />
		<line x1="5" y1="91" x2="5" y2="94" />
		<line x1="4" y1="92" x2="7" y2="92" />
		<line x1="6" y1="91" x2="6" y2="92" />
		<line x1="5" y1="91" x2="7" y2="91" />
		<line x1="6" y1="91" x2="6" y2="92" />
		<line x1="6" y1="92" x2="7" y2="92" />
		<line x1="4" y1="94" x2="4" y2="100" />
		<line x1="1" y1="97" x2="7" y2="97" />
		<line x1="19" y1="88" x2="19" y2="100" />
		<line x1="13" y1="94" x2="25" y2="94" />
		<line x1="22" y1="88" x2="22" y2="94" />
		<line x1="19" y1="91" x2="25" y2="91" />
		<line x1="38" y1="75" x2="38" y2="100" />
		<line x1="25" y1="88" x2="50" y2="88" />
		<line x1="32" y1="88" x2="32" y2="100" />
		<line x1="25" y1="94" x2="38" y2="94" />
		<line x1="44" y1="88" x2="44" y2="100" />
		<line x1="38" y1="94" x2="50" y2="94" />
		<line x1="75" y1="1" x2="75" y2="50" />
		<line x1="50" y1="25" x2="100" y2="25" />
		<line x1="63" y1="1" x2="63" y2="25" />
		<line x1="50" y1="13" x2="75" y2="13" />
		<line x1="56" y1="1" x2="56" y2="13" />
		<line x1="50" y1="7" x2="63" y2="7" />
		<line x1="60" y1="1" x2="60" y2="7" />
		<line x1="56" y1="4" x2="63" y2="4" />
		<line x1="69" y1="1" x2="69" y2="13" />
		<line x1="63" y1="7" x2="75" y2="7" />
		<line x1="66" y1="1" x2="66" y2="7" />
		<line x1="63" y1="4" x2="69" y2="4" />
		<line x1="64" y1="4" x2="64" y2="7" />
		<line x1="63" y1="5" x2="66" y2="5" />
		<line x1="65" y1="4" x2="65" y2="5" />
		<line x1="64" y1="4" x2="66" y2="4" />
		<line x1="65" y1="4" x2="65" y2="5" />
		<line x1="64" y1="5" x2="65" y2="5" />
		<line x1="65" y1="4" x2="65" y2="5" />
		<line x1="65" y1="5" x2="65" y2="5" />
		<line x1="75" y1="50" x2="75" y2="100" />
		<line x1="50" y1="75" x2="100" y2="75" />
		<line x1="63" y1="75" x2="63" y2="100" />
		<line x1="50" y1="88" x2="75" y2="88" />
		<line x1="56" y1="88" x2="56" y2="100" />
		<line x1="50" y1="94" x2="63" y2="94" />
		<line x1="50" y1="100" x2="50" y2="200" />
		<line x1="1" y1="150" x2="100" y2="150" />
		<line x1="25" y1="100" x2="25" y2="150" />
		<line x1="1" y1="125" x2="50" y2="125" />
		<line x1="13" y1="100" x2="13" y2="125" />
		<line x1="1" y1="112" x2="25" y2="112" />
		<line x1="7" y1="100" x2="7" y2="112" />
		<line x1="1" y1="106" x2="13" y2="106" />
		<line x1="7" y1="112" x2="7" y2="125" />
		<line x1="1" y1="119" x2="13" y2="119" />
		<line x1="4" y1="119" x2="4" y2="125" />
		<line x1="1" y1="122" x2="7" y2="122" />
		<line x1="10" y1="112" x2="10" y2="119" />
		<line x1="7" y1="116" x2="13" y2="116" />
		<line x1="8" y1="116" x2="8" y2="119" />
		<line x1="7" y1="117" x2="10" y2="117" />
		<line x1="19" y1="112" x2="19" y2="125" />
		<line x1="13" y1="119" x2="25" y2="119" />
		<line x1="38" y1="100" x2="38" y2="125" />
		<line x1="25" y1="112" x2="50" y2="112" />
		<line x1="38" y1="125" x2="38" y2="150" />
		<line x1="25" y1="137" x2="50" y2="137" />
		<line x1="44" y1="125" x2="44" y2="137" />
		<line x1="38" y1="131" x2="50" y2="131" />
		<line x1="75" y1="100" x2="75" y2="150" />
		<line x1="50" y1="125" x2="100" y2="125" />
		<line x1="150" y1="1" x2="150" y2="100" />
		<line x1="100" y1="50" x2="200" y2="50" />
		<line x1="125" y1="1" x2="125" y2="50" />
		<line x1="100" y1="25" x2="150" y2="25" />
		<line x1="112" y1="1" x2="112" y2="25" />
		<line x1="100" y1="13" x2="125" y2="13" />
		<line x1="106" y1="1" x2="106" y2="13" />
		<line x1="100" y1="7" x2="112" y2="7" />
		<line x1="109" y1="1" x2="109" y2="7" />
		<line x1="106" y1="4" x2="112" y2="4" />
		<line x1="112" y1="25" x2="112" y2="50" />
		<line x1="100" y1="38" x2="125" y2="38" />
		<line x1="106" y1="38" x2="106" y2="50" />
		<line x1="100" y1="44" x2="112" y2="44" />
		<line x1="137" y1="1" x2="137" y2="25" />
		<line x1="125" y1="13" x2="150" y2="13" />
		<line x1="144" y1="1" x2="144" y2="13" />
		<line x1="137" y1="7" x2="150" y2="7" />
		<line x1="125" y1="50" x2="125" y2="100" />
		<line x1="100" y1="75" x2="150" y2="75" />
		<line x1="112" y1="75" x2="112" y2="100" />
		<line x1="100" y1="88" x2="125" y2="88" />
		<line x1="106" y1="88" x2="106" y2="100" />
		<line x1="100" y1="94" x2="112" y2="94" />
		<line x1="119" y1="88" x2="119" y2="100" />
		<line x1="112" y1="94" x2="125" y2="94" />
		<line x1="175" y1="1" x2="175" y2="50" />
		<line x1="150" y1="25" x2="200" y2="25" />
		<line x1="162" y1="1" x2="162" y2="25" />
		<line x1="150" y1="13" x2="175" y2="13" />
		<line x1="156" y1="1" x2="156" y2="13" />
		<line x1="150" y1="7" x2="162" y2="7" />
		<line x1="162" y1="25" x2="162" y2="50" />
		<line x1="150" y1="38" x2="175" y2="38" />
		<line x1="156" y1="25" x2="156" y2="38" />
		<line x1="150" y1="32" x2="162" y2="32" />
		<line x1="150" y1="100" x2="150" y2="200" />
		<line x1="100" y1="150" x2="200" y2="150" />
		<line x1="125" y1="100" x2="125" y2="150" />
		<line x1="100" y1="125" x2="150" y2="125" />
		<line x1="112" y1="100" x2="112" y2="125" />
		<line x1="100" y1="112" x2="125" y2="112" />
		<line x1="175" y1="100" x2="175" y2="150" />
		<line x1="150" y1="125" x2="200" y2="125" />
		<line x1="162" y1="100" x2="162" y2="125" />
		<line x1="150" y1="112" x2="175" y2="112" />
		<line x1="100" y1="200" x2="100" y2="399" />
		<line x1="1" y1="299" x2="200" y2="299" />
		<line x1="50" y1="200" x2="50" y2="299" />
		<line x1="1" y1="249" x2="100" y2="249" />
		<line x1="25" y1="249" x2="25" y2="299" />
		<line x1="1" y1="274" x2="50" y2="274" />
		<line x1="13" y1="274" x2="13" y2="299" />
		<line x1="1" y1="287" x2="25" y2="287" />
		<line x1="7" y1="274" x2="7" y2="287" />
		<line x1="1" y1="280" x2="13" y2="280" />
		<line x1="4" y1="274" x2="4" y2="280" />
		<line x1="1" y1="277" x2="7" y2="277" />
		<line x1="5" y1="277" x2="5" y2="280" />
		<line x1="4" y1="279" x2="7" y2="279" />
		<line x1="10" y1="274" x2="10" y2="280" />
		<line x1="7" y1="277" x2="13" y2="277" />
		<line x1="38" y1="274" x2="38" y2="299" />
		<line x1="25" y1="287" x2="50" y2="287" />
		<line x1="75" y1="249" x2="75" y2="299" />
		<line x1="50" y1="274" x2="100" y2="274" />
		<line x1="63" y1="274" x2="63" y2="299" />
		<line x1="50" y1="287" x2="75" y2="287" />
		<line x1="56" y1="274" x2="56" y2="287" />
		<line x1="50" y1="280" x2="63" y2="280" />
		<line x1="69" y1="274" x2="69" y2="287" />
		<line x1="63" y1="280" x2="75" y2="280" />
		<line x1="50" y1="299" x2="50" y2="399" />
		<line x1="1" y1="349" x2="100" y2="349" />
		<line x1="25" y1="299" x2="25" y2="349" />
		<line x1="1" y1="324" x2="50" y2="324" />
		<line x1="13" y1="299" x2="13" y2="324" />
		<line x1="1" y1="311" x2="25" y2="311" />
		<line x1="7" y1="299" x2="7" y2="311" />
		<line x1="1" y1="305" x2="13" y2="305" />
		<line x1="10" y1="299" x2="10" y2="305" />
		<line x1="7" y1="302" x2="13" y2="302" />
		<line x1="7" y1="311" x2="7" y2="324" />
		<line x1="1" y1="318" x2="13" y2="318" />
		<line x1="19" y1="299" x2="19" y2="311" />
		<line x1="13" y1="305" x2="25" y2="305" />
		<line x1="22" y1="299" x2="22" y2="305" />
		<line x1="19" y1="302" x2="25" y2="302" />
		<line x1="38" y1="299" x2="38" y2="324" />
		<line x1="25" y1="311" x2="50" y2="311" />
		<line x1="25" y1="349" x2="25" y2="399" />
		<line x1="1" y1="374" x2="50" y2="374" />
		<line x1="13" y1="349" x2="13" y2="374" />
		<line x1="1" y1="361" x2="25" y2="361" />
		<line x1="7" y1="361" x2="7" y2="374" />
		<line x1="1" y1="367" x2="13" y2="367" />
		<line x1="4" y1="367" x2="4" y2="374" />
		<line x1="1" y1="371" x2="7" y2="371" />
		<line x1="5" y1="371" x2="5" y2="374" />
		<line x1="4" y1="372" x2="7" y2="372" />
		<line x1="4" y1="371" x2="4" y2="372" />
		<line x1="4" y1="371" x2="5" y2="371" />
		<line x1="4" y1="371" x2="4" y2="371" />
		<line x1="4" y1="371" x2="4" y2="371" />
		<line x1="13" y1="374" x2="13" y2="399" />
		<line x1="1" y1="386" x2="25" y2="386" />
		<line x1="19" y1="386" x2="19" y2="399" />
		<line x1="13" y1="392" x2="25" y2="392" />
		<line x1="75" y1="349" x2="75" y2="399" />
		<line x1="50" y1="374" x2="100" y2="374" />
		<line x1="63" y1="374" x2="63" y2="399" />
		<line x1="50" y1="386" x2="75" y2="386" />
		<line x1="56" y1="386" x2="56" y2="399" />
		<line x1="50" y1="392" x2="63" y2="392" />
		<line x1="150" y1="200" x2="150" y2="299" />
		<line x1="100" y1="249" x2="200" y2="249" />
		<line x1="125" y1="249" x2="125" y2="299" />
		<line x1="100" y1="274" x2="150" y2="274" />
		<line x1="112" y1="274" x2="112" y2="299" />
		<line x1="100" y1="287" x2="125" y2="287" />
		<line x1="106" y1="274" x2="106" y2="287" />
		<line x1="100" y1="280" x2="112" y2="280" />
		<line x1="103" y1="280" x2="103" y2="287" />
		<line x1="100" y1="283" x2="106" y2="283" />
		<line x1="119" y1="274" x2="119" y2="287" />
		<line x1="112" y1="280" x2="125" y2="280" />
		<line x1="137" y1="274" x2="137" y2="299" />
		<line x1="125" y1="287" x2="150" y2="287" />
		<line x1="131" y1="274" x2="131" y2="287" />
		<line x1="125" y1="280" x2="137" y2="280" />
		<line x1="128" y1="274" x2="128" y2="280" />
		<line x1="125" y1="277" x2="131" y2="277" />
		<line x1="144" y1="274" x2="144" y2="287" />
		<line x1="137" y1="280" x2="150" y2="280" />
		<line x1="150" y1="299" x2="150" y2="399" />
		<line x1="100" y1="349" x2="200" y2="349" />
		<line x1="125" y1="299" x2="125" y2="349" />
		<line x1="100" y1="324" x2="150" y2="324" />
		<line x1="112" y1="299" x2="112" y2="324" />
		<line x1="100" y1="311" x2="125" y2="311" />
		<line x1="125" y1="349" x2="125" y2="399" />
		<line x1="100" y1="374" x2="150" y2="374" />
		<line x1="112" y1="349" x2="112" y2="374" />
		<line x1="100" y1="361" x2="125" y2="361" />
		<line x1="106" y1="361" x2="106" y2="374" />
		<line x1="100" y1="367" x2="112" y2="367" />
		<line x1="109" y1="367" x2="109" y2="374" />
		<line x1="106" y1="371" x2="112" y2="371" />
		<line x1="119" y1="361" x2="119" y2="374" />
		<line x1="112" y1="367" x2="125" y2="367" />
		<line x1="112" y1="374" x2="112" y2="399" />
		<line x1="100" y1="386" x2="125" y2="386" />
		<line x1="119" y1="386" x2="119" y2="399" />
		<line x1="112" y1="392" x2="125" y2="392" />
		<line x1="175" y1="299" x2="175" y2="349" />
		<line x1="150" y1="324" x2="200" y2="324" />
		<line x1="162" y1="299" x2="162" y2="324" />
		<line x1="150" y1="311" x2="175" y2="311" />
		<line x1="175" y1="349" x2="175" y2="399" />
		<line x1="150" y1="374" x2="200" y2="374" />
		<line x1="162" y1="349" x2="162" y2="374" />
		<line x1="150" y1="361" x2="175" y2="361" />
		<line x1="162" y1="374" x2="162" y2="399" />
		<line x1="150" y1="386" x2="175" y2="386" />
		<line x1="168" y1="386" x2="168" y2="399" />
		<line x1="162" y1="392" x2="175" y2="392" />
		<line x1="299" y1="1" x2="299" y2="200" />
		<line x1="200" y1="100" x2="399" y2="100" />
		<line x1="249" y1="1" x2="249" y2="100" />
		<line x1="200" y1="50" x2="299" y2="50" />
		<line x1="224" y1="1" x2="224" y2="50" />
		<line x1="200" y1="25" x2="249" y2="25" />
		<line x1="237" y1="1" x2="237" y2="25" />
		<line x1="224" y1="13" x2="249" y2="13" />
		<line x1="243" y1="1" x2="243" y2="13" />
		<line x1="237" y1="7" x2="249" y2="7" />
		<line x1="246" y1="1" x2="246" y2="7" />
		<line x1="243" y1="4" x2="249" y2="4" />
		<line x1="274" y1="1" x2="274" y2="50" />
		<line x1="249" y1="25" x2="299" y2="25" />
		<line x1="262" y1="1" x2="262" y2="25" />
		<line x1="249" y1="13" x2="274" y2="13" />
		<line x1="255" y1="13" x2="255" y2="25" />
		<line x1="249" y1="19" x2="262" y2="19" />
		<line x1="262" y1="25" x2="262" y2="50" />
		<line x1="249" y1="38" x2="274" y2="38" />
		<line x1="287" y1="1" x2="287" y2="25" />
		<line x1="274" y1="13" x2="299" y2="13" />
		<line x1="280" y1="1" x2="280" y2="13" />
		<line x1="274" y1="7" x2="287" y2="7" />
		<line x1="283" y1="1" x2="283" y2="7" />
		<line x1="280" y1="4" x2="287" y2="4" />
		<line x1="285" y1="4" x2="285" y2="7" />
		<line x1="283" y1="5" x2="287" y2="5" />
		<line x1="286" y1="5" x2="286" y2="7" />
		<line x1="285" y1="6" x2="287" y2="6" />
		<line x1="283" y1="7" x2="283" y2="13" />
		<line x1="280" y1="10" x2="287" y2="10" />
		<line x1="287" y1="25" x2="287" y2="50" />
		<line x1="274" y1="38" x2="299" y2="38" />
		<line x1="274" y1="50" x2="274" y2="100" />
		<line x1="249" y1="75" x2="299" y2="75" />
		<line x1="262" y1="75" x2="262" y2="100" />
		<line x1="249" y1="88" x2="274" y2="88" />
		<line x1="255" y1="88" x2="255" y2="100" />
		<line x1="249" y1="94" x2="262" y2="94" />
		<line x1="259" y1="94" x2="259" y2="100" />
		<line x1="255" y1="97" x2="262" y2="97" />
		<line x1="260" y1="97" x2="260" y2="100" />
		<line x1="259" y1="98" x2="262" y2="98" />
		<line x1="287" y1="75" x2="287" y2="100" />
		<line x1="274" y1="88" x2="299" y2="88" />
		<line x1="249" y1="100" x2="249" y2="200" />
		<line x1="200" y1="150" x2="299" y2="150" />
		<line x1="274" y1="100" x2="274" y2="150" />
		<line x1="249" y1="125" x2="299" y2="125" />
		<line x1="262" y1="100" x2="262" y2="125" />
		<line x1="249" y1="112" x2="274" y2="112" />
		<line x1="268" y1="112" x2="268" y2="125" />
		<line x1="262" y1="119" x2="274" y2="119" />
		<line x1="349" y1="1" x2="349" y2="100" />
		<line x1="299" y1="50" x2="399" y2="50" />
		<line x1="324" y1="1" x2="324" y2="50" />
		<line x1="299" y1="25" x2="349" y2="25" />
		<line x1="311" y1="1" x2="311" y2="25" />
		<line x1="299" y1="13" x2="324" y2="13" />
		<line x1="305" y1="1" x2="305" y2="13" />
		<line x1="299" y1="7" x2="311" y2="7" />
		<line x1="302" y1="1" x2="302" y2="7" />
		<line x1="299" y1="4" x2="305" y2="4" />
		<line x1="374" y1="1" x2="374" y2="50" />
		<line x1="349" y1="25" x2="399" y2="25" />
		<line x1="361" y1="1" x2="361" y2="25" />
		<line x1="349" y1="13" x2="374" y2="13" />
		<line x1="386" y1="1" x2="386" y2="25" />
		<line x1="374" y1="13" x2="399" y2="13" />
		<line x1="380" y1="1" x2="380" y2="13" />
		<line x1="374" y1="7" x2="386" y2="7" />
		<line x1="383" y1="1" x2="383" y2="7" />
		<line x1="380" y1="4" x2="386" y2="4" />
		<line x1="381" y1="1" x2="381" y2="4" />
		<line x1="380" y1="2" x2="383" y2="2" />
		<line x1="382" y1="2" x2="382" y2="4" />
		<line x1="381" y1="3" x2="383" y2="3" />
		<line x1="382" y1="3" x2="382" y2="4" />
		<line x1="381" y1="3" x2="382" y2="3" />
		<line x1="382" y1="3" x2="382" y2="4" />
		<line x1="381" y1="3" x2="382" y2="3" />
		<line x1="382" y1="3" x2="382" y2="4" />
		<line x1="382" y1="4" x2="382" y2="4" />
		<line x1="382" y1="3" x2="382" y2="4" />
		<line x1="382" y1="3" x2="382" y2="3" />
		<line x1="382" y1="3" x2="382" y2="4" />
		<line x1="382" y1="3" x2="382" y2="3" />
		<line x1="382" y1="3" x2="382" y2="4" />
		<line x1="382" y1="4" x2="382" y2="4" />
		<line x1="382" y1="4" x2="382" y2="4" />
		<line x1="382" y1="4" x2="382" y2="4" />
		<line x1="392" y1="1" x2="392" y2="13" />
		<line x1="386" y1="7" x2="399" y2="7" />
		<line x1="389" y1="1" x2="389" y2="7" />
		<line x1="386" y1="4" x2="392" y2="4" />
		<line x1="388" y1="4" x2="388" y2="7" />
		<line x1="386" y1="5" x2="389" y2="5" />
		<line x1="388" y1="4" x2="388" y2="5" />
		<line x1="388" y1="4" x2="389" y2="4" />
		<line x1="389" y1="4" x2="389" y2="4" />
		<line x1="388" y1="4" x2="389" y2="4" />
		<line x1="395" y1="7" x2="395" y2="13" />
		<line x1="392" y1="10" x2="399" y2="10" />
		<line x1="386" y1="25" x2="386" y2="50" />
		<line x1="374" y1="38" x2="399" y2="38" />
		<line x1="380" y1="38" x2="380" y2="50" />
		<line x1="374" y1="44" x2="386" y2="44" />
		<line x1="377" y1="38" x2="377" y2="44" />
		<line x1="374" y1="41" x2="380" y2="41" />
		<line x1="349" y1="100" x2="349" y2="200" />
		<line x1="299" y1="150" x2="399" y2="150" />
		<line x1="374" y1="100" x2="374" y2="150" />
		<line x1="349" y1="125" x2="399" y2="125" />
		<line x1="361" y1="125" x2="361" y2="150" />
		<line x1="349" y1="137" x2="374" y2="137" />
		<line x1="355" y1="125" x2="355" y2="137" />
		<line x1="349" y1="131" x2="361" y2="131" />
		<line x1="299" y1="200" x2="299" y2="399" />
		<line x1="200" y1="299" x2="399" y2="299" />
		<line x1="249" y1="200" x2="249" y2="299" />
		<line x1="200" y1="249" x2="299" y2="249" />
		<line x1="274" y1="249" x2="274" y2="299" />
		<line x1="249" y1="274" x2="299" y2="274" />
		<line x1="262" y1="274" x2="262" y2="299" />
		<line x1="249" y1="287" x2="274" y2="287" />
		<line x1="287" y1="274" x2="287" y2="299" />
		<line x1="274" y1="287" x2="299" y2="287" />
		<line x1="249" y1="299" x2="249" y2="399" />
		<line x1="200" y1="349" x2="299" y2="349" />
		<line x1="274" y1="299" x2="274" y2="349" />
		<line x1="249" y1="324" x2="299" y2="324" />
		<line x1="274" y1="349" x2="274" y2="399" />
		<line x1="249" y1="374" x2="299" y2="374" />
		<line x1="262" y1="349" x2="262" y2="374" />
		<line x1="249" y1="361" x2="274" y2="361" />
		<line x1="349" y1="200" x2="349" y2="299" />
		<line x1="299" y1="249" x2="399" y2="249" />
		<line x1="324" y1="249" x2="324" y2="299" />
		<line x1="299" y1="274" x2="349" y2="274" />
		<line x1="374" y1="249" x2="374" y2="299" />
		<line x1="349" y1="274" x2="399" y2="274" />
		<line x1="361" y1="274" x2="361" y2="299" />
		<line x1="349" y1="287" x2="374" y2="287" />
		<line x1="355" y1="274" x2="355" y2="287" />
		<line x1="349" y1="280" x2="361" y2="280" />
		<line x1="386" y1="274" x2="386" y2="299" />
		<line x1="374" y1="287" x2="399" y2="287" />
		<line x1="349" y1="299" x2="349" y2="399" />
		<line x1="299" y1="349" x2="399" y2="349" />
		<line x1="324" y1="349" x2="324" y2="399" />
		<line x1="299" y1="374" x2="349" y2="374" />
		<line x1="374" y1="299" x2="374" y2="349" />
		<line x1="349" y1="324" x2="399" y2="324" />
		<line x1="361" y1="299" x2="361" y2="324" />
		<line x1="349" y1="311" x2="374" y2="311" />
		<line x1="374" y1="349" x2="374" y2="399" />
		<line x1="349" y1="374" x2="399" y2="374" />
	</g>
	<g fill="white" stroke="black">
		<circle cx="142" cy="283" r="2" />
		<circle cx="366" cy="13" r="2" />
		<circle cx="4" cy="312" r="2" />
		<circle cx="26" cy="41" r="2" />
		<circle cx="283" cy="12" r="2" />
		<circle cx="347" cy="97" r="2" />
		<circle cx="4" cy="371" r="2" />
		<circle cx="110" cy="4" r="2" />
		<circle cx="290" cy="304" r="2" />
		<circle cx="247" cy="275" r="2" />
		<circle cx="394" cy="4" r="2" />
		<circle cx="383" cy="127" r="2" />
		<circle cx="14" cy="124" r="2" />
		<circle cx="27" cy="275" r="2" />
		<circle cx="160" cy="100" r="2" />
		<circle cx="5" cy="42" r="2" />
		<circle cx="22" cy="301" r="2" />
		<circle cx="357" cy="304" r="2" />
		<circle cx="102" cy="12" r="2" />
		<circle cx="161" cy="30" r="2" />
		<circle cx="396" cy="12" r="2" />
		<circle cx="382" cy="4" r="2" />
		<circle cx="262" cy="39" r="2" />
		<circle cx="115" cy="89" r="2" />
		<circle cx="23" cy="89" r="2" />
		<circle cx="284" cy="39" r="2" />
		<circle cx="29" cy="304" r="2" />
		<circle cx="8" cy="39" r="2" />
		<circle cx="100" cy="100" r="2" />
		<circle cx="7" cy="302" r="2" />
		<circle cx="65" cy="5" r="2" />
		<circle cx="27" cy="4" r="2" />
		<circle cx="28" cy="6" r="2" />
		<circle cx="14" cy="116" r="2" />
		<circle cx="155" cy="33" r="2" />
		<circle cx="60" cy="99" r="2" />
		<circle cx="117" cy="369" r="2" />
		<circle cx="11" cy="303" r="2" />
		<circle cx="107" cy="368" r="2" />
		<circle cx="155" cy="4" r="2" />
		<circle cx="4" cy="305" r="2" />
		<circle cx="22" cy="124" r="2" />
		<circle cx="5" cy="117" r="2" />
		<circle cx="49" cy="92" r="2" />
		<circle cx="4" cy="368" r="2" />
		<circle cx="292" cy="287" r="2" />
		<circle cx="124" cy="15" r="2" />
		<circle cx="10" cy="313" r="2" />
		<circle cx="26" cy="41" r="2" />
		<circle cx="307" cy="38" r="2" />
		<circle cx="395" cy="12" r="2" />
		<circle cx="298" cy="31" r="2" />
		<circle cx="6" cy="92" r="2" />
		<circle cx="286" cy="6" r="2" />
		<circle cx="119" cy="360" r="2" />
		<circle cx="4" cy="97" r="2" />
		<circle cx="23" cy="92" r="2" />
		<circle cx="289" cy="89" r="2" />
		<circle cx="22" cy="13" r="2" />
		<circle cx="284" cy="7" r="2" />
		<circle cx="163" cy="396" r="2" />
		<circle cx="156" cy="368" r="2" />
		<circle cx="5" cy="124" r="2" />
		<circle cx="122" cy="4" r="2" />
		<circle cx="51" cy="33" r="2" />
		<circle cx="5" cy="42" r="2" />
		<circle cx="4" cy="371" r="2" />
		<circle cx="7" cy="115" r="2" />
		<circle cx="161" cy="4" r="2" />
		<circle cx="362" cy="371" r="2" />
		<circle cx="116" cy="100" r="2" />
		<circle cx="298" cy="123" r="2" />
		<circle cx="11" cy="372" r="2" />
		<circle cx="10" cy="116" r="2" />
		<circle cx="106" cy="302" r="2" />
		<circle cx="42" cy="127" r="2" />
		<circle cx="11" cy="279" r="2" />
		<circle cx="7" cy="39" r="2" />
		<circle cx="101" cy="286" r="2" />
		<circle cx="347" cy="389" r="2" />
		<circle cx="61" cy="4" r="2" />
		<circle cx="119" cy="118" r="2" />
		<circle cx="246" cy="4" r="2" />
		<circle cx="267" cy="6" r="2" />
		<circle cx="289" cy="390" r="2" />
		<circle cx="106" cy="91" r="2" />
		<circle cx="145" cy="7" r="2" />
		<circle cx="145" cy="360" r="2" />
		<circle cx="359" cy="283" r="2" />
		<circle cx="163" cy="389" r="2" />
		<circle cx="44" cy="38" r="2" />
		<circle cx="389" cy="4" r="2" />
		<circle cx="28" cy="287" r="2" />
		<circle cx="362" cy="310" r="2" />
		<circle cx="10" cy="305" r="2" />
		<circle cx="11" cy="100" r="2" />
		<circle cx="124" cy="395" r="2" />
		<circle cx="12" cy="39" r="2" />
		<circle cx="23" cy="31" r="2" />
		<circle cx="7" cy="42" r="2" />
		<circle cx="19" cy="30" r="2" />
		<circle cx="289" cy="6" r="2" />
		<circle cx="59" cy="4" r="2" />
		<circle cx="4" cy="360" r="2" />
		<circle cx="263" cy="372" r="2" />
		<circle cx="5" cy="304" r="2" />
		<circle cx="22" cy="305" r="2" />
		<circle cx="109" cy="89" r="2" />
		<circle cx="124" cy="30" r="2" />
		<circle cx="103" cy="313" r="2" />
		<circle cx="141" cy="302" r="2" />
		<circle cx="380" cy="6" r="2" />
		<circle cx="261" cy="389" r="2" />
		<circle cx="103" cy="38" r="2" />
		<circle cx="140" cy="6" r="2" />
		<circle cx="252" cy="287" r="2" />
		<circle cx="4" cy="100" r="2" />
		<circle cx="65" cy="286" r="2" />
		<circle cx="51" cy="5" r="2" />
		<circle cx="4" cy="31" r="2" />
		<circle cx="5" cy="12" r="2" />
		<circle cx="123" cy="363" r="2" />
		<circle cx="8" cy="116" r="2" />
		<circle cx="64" cy="127" r="2" />
		<circle cx="379" cy="41" r="2" />
		<circle cx="117" cy="98" r="2" />
		<circle cx="7" cy="92" r="2" />
		<circle cx="382" cy="287" r="2" />
		<circle cx="10" cy="34" r="2" />
		<circle cx="10" cy="88" r="2" />
		<circle cx="59" cy="7" r="2" />
		<circle cx="51" cy="395" r="2" />
		<circle cx="45" cy="127" r="2" />
		<circle cx="385" cy="41" r="2" />
		<circle cx="28" cy="89" r="2" />
		<circle cx="7" cy="4" r="2" />
		<circle cx="6" cy="278" r="2" />
		<circle cx="262" cy="303" r="2" />
		<circle cx="6" cy="31" r="2" />
		<circle cx="348" cy="284" r="2" />
		<circle cx="45" cy="287" r="2" />
		<circle cx="19" cy="5" r="2" />
		<circle cx="347" cy="361" r="2" />
		<circle cx="65" cy="89" r="2" />
		<circle cx="349" cy="116" r="2" />
		<circle cx="382" cy="4" r="2" />
		<circle cx="142" cy="16" r="2" />
		<circle cx="162" cy="371" r="2" />
		<circle cx="4" cy="276" r="2" />
		<circle cx="284" cy="97" r="2" />
		<circle cx="5" cy="98" r="2" />
		<circle cx="157" cy="115" r="2" />
		<circle cx="109" cy="33" r="2" />
		<circle cx="26" cy="15" r="2" />
		<circle cx="245" cy="4" r="2" />
		<circle cx="119" cy="276" r="2" />
		<circle cx="58" cy="89" r="2" />
		<circle cx="261" cy="98" r="2" />
		<circle cx="4" cy="284" r="2" />
		<circle cx="382" cy="395" r="2" />
		<circle cx="301" cy="4" r="2" />
		<circle cx="109" cy="12" r="2" />
		<circle cx="286" cy="6" r="2" />
		<circle cx="66" cy="368" r="2" />
		<circle cx="10" cy="302" r="2" />
		<circle cx="385" cy="90" r="2" />
		<circle cx="65" cy="4" r="2" />
		<circle cx="348" cy="7" r="2" />
		<circle cx="250" cy="284" r="2" />
		<circle cx="19" cy="395" r="2" />
		<circle cx="356" cy="126" r="2" />
		<circle cx="49" cy="97" r="2" />
		<circle cx="52" cy="276" r="2" />
		<circle cx="388" cy="5" r="2" />
		<circle cx="20" cy="100" r="2" />
		<circle cx="125" cy="279" r="2" />
		<circle cx="350" cy="313" r="2" />
		<circle cx="42" cy="88" r="2" />
		<circle cx="109" cy="372" r="2" />
		<circle cx="11" cy="7" r="2" />
		<circle cx="23" cy="284" r="2" />
		<circle cx="139" cy="89" r="2" />
		<circle cx="66" cy="278" r="2" />
		<circle cx="299" cy="4" r="2" />
		<circle cx="67" cy="4" r="2" />
		<circle cx="260" cy="98" r="2" />
		<circle cx="350" cy="278" r="2" />
		<circle cx="262" cy="97" r="2" />
		<circle cx="260" cy="16" r="2" />
		<circle cx="7" cy="119" r="2" />
		<circle cx="66" cy="115" r="2" />
		<circle cx="270" cy="115" r="2" />
		<circle cx="148" cy="278" r="2" />
		<circle cx="50" cy="305" r="2" />
		<circle cx="149" cy="124" r="2" />
		<circle cx="307" cy="276" r="2" />
		<circle cx="59" cy="15" r="2" />
		<circle cx="299" cy="387" r="2" />
		<circle cx="49" cy="123" r="2" />
		<circle cx="117" cy="286" r="2" />
		<circle cx="103" cy="283" r="2" />
		<circle cx="267" cy="30" r="2" />
		<circle cx="161" cy="304" r="2" />
		<circle cx="119" cy="386" r="2" />
		<circle cx="350" cy="15" r="2" />
		<circle cx="49" cy="363" r="2" />
		<circle cx="299" cy="13" r="2" />
		<circle cx="11" cy="7" r="2" />
		<circle cx="389" cy="4" r="2" />
		<circle cx="283" cy="287" r="2" />
		<circle cx="65" cy="4" r="2" />
		<circle cx="52" cy="389" r="2" />
		<circle cx="5" cy="89" r="2" />
		<circle cx="254" cy="15" r="2" />
		<circle cx="28" cy="100" r="2" />
		<circle cx="57" cy="275" r="2" />
		<circle cx="379" cy="4" r="2" />
		<circle cx="160" cy="42" r="2" />
		<circle cx="5" cy="278" r="2" />
		<circle cx="163" cy="302" r="2" />
		<circle cx="110" cy="4" r="2" />
		<circle cx="21" cy="302" r="2" />
		<circle cx="10" cy="276" r="2" />
		<circle cx="25" cy="116" r="2" />
		<circle cx="246" cy="34" r="2" />
		<circle cx="5" cy="389" r="2" />
		<circle cx="58" cy="310" r="2" />
		<circle cx="6" cy="276" r="2" />
		<circle cx="267" cy="117" r="2" />
		<circle cx="160" cy="389" r="2" />
		<circle cx="4" cy="123" r="2" />
		<circle cx="254" cy="361" r="2" />
		<circle cx="125" cy="275" r="2" />
		<circle cx="261" cy="7" r="2" />
		<circle cx="28" cy="5" r="2" />
		<circle cx="14" cy="4" r="2" />
		<circle cx="10" cy="276" r="2" />
		<circle cx="10" cy="13" r="2" />
		<circle cx="109" cy="38" r="2" />
		<circle cx="7" cy="6" r="2" />
		<circle cx="342" cy="115" r="2" />
		<circle cx="10" cy="15" r="2" />
		<circle cx="20" cy="386" r="2" />
		<circle cx="261" cy="33" r="2" />
		<circle cx="22" cy="310" r="2" />
		<circle cx="44" cy="97" r="2" />
		<circle cx="42" cy="42" r="2" />
		<circle cx="349" cy="126" r="2" />
		<circle cx="379" cy="42" r="2" />
		<circle cx="389" cy="284" r="2" />
	</g>
</svg>
